<svg width="24" height="24" viewBox="0 0 24 24" fill="none" xmlns="http://www.w3.org/2000/svg">
<path d="M20 11.0001H7.41399L11.707 6.70712C12.097 6.31712 12.097 5.68412 11.707 5.29312C11.317 4.90212 10.684 4.90312 10.293 5.29312L4.29299 11.2931C3.90299 11.6831 3.90299 12.3161 4.29299 12.7071L10.293 18.7071C10.488 18.9021 10.743 19.0001 11 19.0001C11.257 19.0001 11.512 18.9021 11.707 18.7071C12.097 18.3171 12.097 17.6841 11.707 17.2931L7.41399 13.0001H20C20.553 13.0001 21 12.5531 21 12.0001C21 11.4471 20.553 11.0001 20 11.0001Z" fill="black"/>
</svg>
