<svg width="24" height="24" viewBox="0 0 24 24" fill="none" xmlns="http://www.w3.org/2000/svg">
<path d="M12.0029 23.274C11.9199 23.274 11.8359 23.26 11.7549 23.232C11.4549 23.127 11.2529 22.842 11.2529 22.524V18.384C9.17292 18.212 7.23992 17.318 5.74692 15.824C2.29692 12.374 2.29692 6.76204 5.74692 3.31404C9.19692 -0.133955 14.8089 -0.135955 18.2589 3.31404C21.3549 6.41104 21.7089 11.384 19.0789 14.879L12.5889 22.991C12.4429 23.173 12.2259 23.273 12.0019 23.273L12.0029 23.274ZM12.0029 2.22405C10.1209 2.22405 8.23992 2.94105 6.80792 4.37405C3.94392 7.23705 3.94392 11.898 6.80792 14.764C8.19592 16.151 10.0409 16.914 12.0029 16.914C12.4169 16.914 12.7529 17.251 12.7529 17.664V20.384L17.8949 13.959C20.0649 11.074 19.7709 6.94505 17.1989 4.37205C15.7649 2.94205 13.8829 2.22405 12.0019 2.22405H12.0029Z" fill="black"/>
<path d="M15.55 8.70007H8.44995C8.03695 8.70007 7.69995 8.36307 7.69995 7.95007C7.69995 7.53707 8.03695 7.20007 8.44995 7.20007H15.55C15.963 7.20007 16.3 7.53507 16.3 7.95007C16.3 8.36507 15.963 8.70007 15.55 8.70007ZM12.5 11.9381H8.44995C8.03695 11.9381 7.69995 11.6021 7.69995 11.1881C7.69995 10.7741 8.03695 10.4381 8.44995 10.4381H12.5C12.914 10.4381 13.25 10.7741 13.25 11.1881C13.25 11.6021 12.914 11.9381 12.5 11.9381Z" fill="black"/>
</svg>
