<svg width="24" height="24" viewBox="0 0 24 24" fill="none" xmlns="http://www.w3.org/2000/svg">
<path d="M13.4141 12L19.2071 6.207C19.5971 5.817 19.5971 5.184 19.2071 4.793C18.8171 4.402 18.1841 4.403 17.7931 4.793L12.0001 10.586L6.20712 4.793C5.81712 4.403 5.18412 4.403 4.79312 4.793C4.40212 5.183 4.40312 5.816 4.79312 6.207L10.5861 12L4.79312 17.793C4.40312 18.183 4.40312 18.816 4.79312 19.207C4.98812 19.402 5.24312 19.5 5.50012 19.5C5.75712 19.5 6.01212 19.402 6.20712 19.207L12.0001 13.414L17.7931 19.207C17.9881 19.402 18.2431 19.5 18.5001 19.5C18.7571 19.5 19.0121 19.402 19.2071 19.207C19.5971 18.817 19.5971 18.184 19.2071 17.793L13.4141 12Z" fill="#FF6600"/>
</svg>
