<svg width="24" height="24" viewBox="0 0 24 24" fill="none" xmlns="http://www.w3.org/2000/svg">
<path d="M21.1301 11.358L3.61406 2.10798C3.32406 1.95598 2.97406 2.00598 2.74106 2.23398C2.51106 2.45998 2.44806 2.81098 2.59106 3.10198L6.95306 12.022L2.59106 20.942C2.44806 21.234 2.51106 21.585 2.74106 21.81C2.88606 21.95 3.07406 22.022 3.26406 22.022C3.38406 22.022 3.50406 21.994 3.61406 21.935L21.1311 12.685C21.3761 12.555 21.5311 12.299 21.5311 12.021C21.5311 11.743 21.3761 11.489 21.1311 11.359L21.1301 11.358ZM4.94806 4.50998L17.7521 11.272H8.25506L4.94806 4.51198V4.50998ZM8.25506 12.77H17.7531L4.94806 19.535L8.25506 12.772V12.77Z" fill="#FF6600"/>
</svg>
