<svg width="40" height="40" viewBox="0 0 40 40" fill="none" xmlns="http://www.w3.org/2000/svg">
<circle cx="20" cy="20" r="19.5" stroke="#FF6600"/>
<path d="M27.25 11.0181H12.75C11.233 11.0181 10 12.2521 10 13.7701V26.2651C10 27.7831 11.233 29.0181 12.75 29.0181H27.25C28.767 29.0181 30 27.7831 30 26.2651V13.7701C30 12.2521 28.767 11.0181 27.25 11.0181ZM12.75 12.5181H27.25C27.94 12.5181 28.5 13.0781 28.5 13.7681V14.4821L20.45 19.8491C20.177 20.0291 19.824 20.0311 19.55 19.8471L11.5 14.4821V13.7681C11.5 13.0781 12.06 12.5181 12.75 12.5181ZM27.25 27.5161H12.75C12.06 27.5161 11.5 26.9561 11.5 26.2661V16.2401L18.74 21.0701C19.123 21.3261 19.562 21.4541 20 21.4541C20.44 21.4541 20.877 21.3261 21.26 21.0711L28.5 16.2411V26.2631C28.5 26.9531 27.94 27.5131 27.25 27.5131V27.5161Z" fill="#FF6600"/>
</svg>
